<svg width="89" height="13" viewBox="0 0 89 13" fill="none" xmlns="http://www.w3.org/2000/svg">
<path d="M10.488 12V2.752L6.376 9.936H5.672L1.544 2.752V12H0.424V0.639999H1.576L6.008 8.416L10.472 0.639999H11.608V12H10.488ZM17.7063 12.16C16.9063 12.16 16.1916 11.9627 15.5623 11.568C14.9329 11.1733 14.4369 10.6453 14.0743 9.984C13.7116 9.32267 13.5303 8.59733 13.5303 7.808C13.5303 7.02933 13.7063 6.31467 14.0583 5.664C14.4209 5.01333 14.9169 4.496 15.5463 4.112C16.1756 3.71733 16.8903 3.52 17.6903 3.52C18.5116 3.52 19.2316 3.71733 19.8503 4.112C20.4689 4.50667 20.9489 5.02933 21.2903 5.68C21.6423 6.32 21.8183 7.024 21.8183 7.792C21.8183 7.96267 21.8129 8.10667 21.8023 8.224H14.6663C14.7196 8.82133 14.8903 9.35467 15.1783 9.824C15.4663 10.2827 15.8343 10.6507 16.2823 10.928C16.7303 11.1947 17.2209 11.328 17.7543 11.328C18.2983 11.328 18.8103 11.1893 19.2903 10.912C19.7703 10.6347 20.1116 10.272 20.3143 9.824L21.2583 10.08C21.0876 10.4853 20.8209 10.848 20.4583 11.168C20.1063 11.4773 19.6956 11.7227 19.2263 11.904C18.7569 12.0747 18.2503 12.16 17.7063 12.16ZM14.6343 7.44H20.7943C20.7516 6.84267 20.5863 6.31467 20.2983 5.856C20.0103 5.38667 19.6423 5.024 19.1943 4.768C18.7463 4.50133 18.2503 4.368 17.7063 4.368C17.1623 4.368 16.6663 4.50133 16.2183 4.768C15.7703 5.024 15.4023 5.38667 15.1143 5.856C14.8369 6.31467 14.6769 6.84267 14.6343 7.44ZM22.9369 7.856C22.9369 7.06667 23.0969 6.34667 23.4169 5.696C23.7475 5.03467 24.2009 4.50667 24.7769 4.112C25.3529 3.71733 26.0089 3.52 26.7449 3.52C27.4382 3.52 28.0569 3.70667 28.6009 4.08C29.1555 4.44267 29.5875 4.88533 29.8969 5.408V0.32H30.9849V10.688C30.9849 10.976 31.1129 11.1253 31.3689 11.136V12C31.1555 12.032 30.9902 12.0427 30.8729 12.032C30.6382 12.0213 30.4355 11.936 30.2649 11.776C30.1049 11.6053 30.0249 11.4133 30.0249 11.2V10.384C29.6942 10.928 29.2462 11.36 28.6809 11.68C28.1155 12 27.5289 12.16 26.9209 12.16C26.3449 12.16 25.8115 12.0427 25.3209 11.808C24.8302 11.5733 24.4035 11.2533 24.0409 10.848C23.6889 10.4427 23.4169 9.984 23.2249 9.472C23.0329 8.94933 22.9369 8.41067 22.9369 7.856ZM29.8969 9.136V6.56C29.7582 6.176 29.5342 5.82933 29.2249 5.52C28.9155 5.2 28.5635 4.94933 28.1689 4.768C27.7849 4.576 27.4009 4.48 27.0169 4.48C26.4195 4.48 25.8969 4.64533 25.4489 4.976C25.0115 5.296 24.6702 5.71733 24.4249 6.24C24.1795 6.752 24.0569 7.29067 24.0569 7.856C24.0569 8.45333 24.1902 9.008 24.4569 9.52C24.7342 10.032 25.1075 10.4427 25.5769 10.752C26.0462 11.0507 26.5742 11.2 27.1609 11.2C27.5235 11.2 27.9022 11.1093 28.2969 10.928C28.7022 10.736 29.0542 10.4853 29.3529 10.176C29.6622 9.86667 29.8435 9.52 29.8969 9.136ZM33.674 12V0.639999H38.474C38.9647 0.639999 39.4127 0.741333 39.818 0.943999C40.234 1.14667 40.5913 1.424 40.89 1.776C41.1887 2.11733 41.418 2.50133 41.578 2.928C41.7487 3.344 41.834 3.77067 41.834 4.208C41.834 4.76267 41.7273 5.28 41.514 5.76C41.3113 6.24 41.018 6.64533 40.634 6.976C40.25 7.30667 39.8073 7.52 39.306 7.616L42.09 12H40.826L38.154 7.808H34.794V12H33.674ZM34.794 6.816H38.506C38.954 6.816 39.3433 6.69333 39.674 6.448C40.0047 6.192 40.2607 5.86667 40.442 5.472C40.6233 5.07733 40.714 4.656 40.714 4.208C40.714 3.74933 40.6073 3.328 40.394 2.944C40.1913 2.54933 39.914 2.23467 39.562 2C39.21 1.75467 38.826 1.632 38.41 1.632H34.794V6.816ZM47.2051 12.16C46.4051 12.16 45.6905 11.9627 45.0611 11.568C44.4425 11.1733 43.9571 10.6507 43.6051 10C43.2531 9.33867 43.0771 8.624 43.0771 7.856C43.0771 7.07733 43.2531 6.36267 43.6051 5.712C43.9678 5.05067 44.4585 4.52267 45.0771 4.128C45.7065 3.72267 46.4158 3.52 47.2051 3.52C48.0051 3.52 48.7145 3.72267 49.3331 4.128C49.9625 4.52267 50.4531 5.05067 50.8051 5.712C51.1678 6.36267 51.3491 7.07733 51.3491 7.856C51.3491 8.624 51.1731 9.33867 50.8211 10C50.4691 10.6507 49.9785 11.1733 49.3491 11.568C48.7305 11.9627 48.0158 12.16 47.2051 12.16ZM44.1811 7.872C44.1811 8.49067 44.3145 9.056 44.5811 9.568C44.8585 10.0693 45.2265 10.4693 45.6851 10.768C46.1438 11.056 46.6505 11.2 47.2051 11.2C47.7598 11.2 48.2665 11.0507 48.7251 10.752C49.1838 10.4533 49.5518 10.048 49.8291 9.536C50.1065 9.024 50.2451 8.45867 50.2451 7.84C50.2451 7.22133 50.1065 6.656 49.8291 6.144C49.5518 5.632 49.1838 5.22667 48.7251 4.928C48.2665 4.62933 47.7598 4.48 47.2051 4.48C46.6611 4.48 46.1598 4.63467 45.7011 4.944C45.2425 5.24267 44.8745 5.648 44.5971 6.16C44.3198 6.672 44.1811 7.24267 44.1811 7.872ZM53.0888 8.56V3.664H54.1768V8.368C54.1768 10.256 54.8221 11.2 56.1128 11.2C56.7528 11.2 57.3501 10.992 57.9048 10.576C58.4701 10.16 58.8754 9.60533 59.1208 8.912V3.664H60.2088V10.688C60.2088 10.976 60.3368 11.1253 60.5928 11.136V12C60.4648 12.0213 60.3634 12.032 60.2888 12.032C60.2248 12.032 60.1554 12.032 60.0808 12.032C59.8568 12.0107 59.6648 11.9253 59.5048 11.776C59.3554 11.6267 59.2808 11.4453 59.2808 11.232L59.2488 10.112C58.8861 10.7627 58.3901 11.2693 57.7608 11.632C57.1421 11.984 56.4701 12.16 55.7448 12.16C53.9741 12.16 53.0888 10.96 53.0888 8.56ZM66.6688 11.6C66.5408 11.6533 66.3061 11.7493 65.9648 11.888C65.6234 12.0267 65.2288 12.096 64.7808 12.096C64.3114 12.096 63.9008 11.9627 63.5488 11.696C63.1968 11.4293 63.0208 11.0293 63.0208 10.496V4.528H61.8688V3.664H63.0208V0.848H64.1088V3.664H66.0288V4.528H64.1088V10.192C64.1301 10.5013 64.2368 10.7307 64.4288 10.88C64.6314 11.0187 64.8608 11.088 65.1168 11.088C65.4154 11.088 65.6821 11.04 65.9168 10.944C66.1621 10.8373 66.3168 10.7627 66.3808 10.72L66.6688 11.6ZM68.0281 1.92V0.32H69.1161V1.92H68.0281ZM68.0281 12V3.664H69.1161V12H68.0281ZM78.5205 12H77.4325V7.344C77.4325 6.36267 77.2832 5.648 76.9845 5.2C76.6965 4.74133 76.2485 4.512 75.6405 4.512C75.2138 4.512 74.7925 4.61867 74.3765 4.832C73.9605 5.03467 73.5925 5.31733 73.2725 5.68C72.9632 6.032 72.7392 6.43733 72.6005 6.896V12H71.5125V3.664H72.5045V5.552C72.8352 4.944 73.3205 4.45333 73.9605 4.08C74.6005 3.70667 75.2938 3.52 76.0405 3.52C76.6592 3.52 77.1498 3.66933 77.5125 3.968C77.8752 4.256 78.1312 4.672 78.2805 5.216C78.4405 5.74933 78.5205 6.384 78.5205 7.12V12ZM84.4406 12.16C83.6406 12.16 82.926 11.9627 82.2966 11.568C81.6673 11.1733 81.1713 10.6453 80.8086 9.984C80.446 9.32267 80.2646 8.59733 80.2646 7.808C80.2646 7.02933 80.4406 6.31467 80.7926 5.664C81.1553 5.01333 81.6513 4.496 82.2806 4.112C82.91 3.71733 83.6246 3.52 84.4246 3.52C85.246 3.52 85.966 3.71733 86.5846 4.112C87.2033 4.50667 87.6833 5.02933 88.0246 5.68C88.3766 6.32 88.5526 7.024 88.5526 7.792C88.5526 7.96267 88.5473 8.10667 88.5366 8.224H81.4006C81.454 8.82133 81.6246 9.35467 81.9126 9.824C82.2006 10.2827 82.5686 10.6507 83.0166 10.928C83.4646 11.1947 83.9553 11.328 84.4886 11.328C85.0326 11.328 85.5446 11.1893 86.0246 10.912C86.5046 10.6347 86.846 10.272 87.0486 9.824L87.9926 10.08C87.822 10.4853 87.5553 10.848 87.1926 11.168C86.8406 11.4773 86.43 11.7227 85.9606 11.904C85.4913 12.0747 84.9846 12.16 84.4406 12.16ZM81.3686 7.44H87.5286C87.486 6.84267 87.3206 6.31467 87.0326 5.856C86.7446 5.38667 86.3766 5.024 85.9286 4.768C85.4806 4.50133 84.9846 4.368 84.4406 4.368C83.8966 4.368 83.4006 4.50133 82.9526 4.768C82.5046 5.024 82.1366 5.38667 81.8486 5.856C81.5713 6.31467 81.4113 6.84267 81.3686 7.44Z" fill="#011928"/>
</svg>
